<svg id="visual" viewBox="0 0 375 667" width="375" height="667" xmlns="http://www.w3.org/2000/svg" xmlns:xlink="http://www.w3.org/1999/xlink" version="1.1"><rect x="0" y="0" width="375" height="667" fill="#a9dce3"></rect><defs><linearGradient id="grad1_0" x1="0%" y1="0%" x2="100%" y2="100%"><stop offset="30%" stop-color="#a9dce3" stop-opacity="1"></stop><stop offset="70%" stop-color="#a9dce3" stop-opacity="1"></stop></linearGradient></defs><defs><linearGradient id="grad2_0" x1="0%" y1="0%" x2="100%" y2="100%"><stop offset="30%" stop-color="#a9dce3" stop-opacity="1"></stop><stop offset="70%" stop-color="#a9dce3" stop-opacity="1"></stop></linearGradient></defs><g transform="translate(375, 0)"><path d="M0 337.5C-20.7 330.6 -41.3 323.7 -63.6 319.7C-85.9 315.7 -109.8 314.6 -122.8 296.6C-135.9 278.5 -138.1 243.6 -155 232C-171.9 220.4 -203.4 232.2 -229.8 229.8C-256.2 227.4 -277.5 210.7 -280.6 187.5C-283.7 164.3 -268.6 134.4 -274.4 113.7C-280.1 92.9 -306.7 81.2 -320.7 63.8C-334.7 46.4 -336.1 23.2 -337.5 0L0 0Z" fill="#7888de"></path></g><g transform="translate(0, 667)"><path d="M0 -337.5C19.9 -324.6 39.8 -311.6 61.3 -308C82.7 -304.3 105.6 -310 125.5 -303C145.4 -296.1 162.2 -276.5 170 -254.4C177.8 -232.4 176.7 -207.8 200.1 -200.1C223.5 -192.4 271.5 -201.7 277.7 -185.6C283.9 -169.4 248.4 -127.9 255 -105.6C261.6 -83.3 310.2 -80.2 331 -65.8C351.8 -51.4 344.6 -25.7 337.5 0L0 0Z" fill="#7888de"></path></g></svg>